<mxfile host="app.diagrams.net" modified="2024-01-10T10:45:31.281Z" agent="Mozilla/5.0 (Macintosh; Intel Mac OS X 10_15_7) AppleWebKit/605.1.15 (KHTML, like Gecko) Version/17.2 Safari/605.1.15" etag="7gXOikH6BNkUVWhPEnzp" version="22.1.17" type="github">
  <diagram name="Page-1" id="e_JMkv63ZfSiVQM9Ydst">
    <mxGraphModel dx="820" dy="623" grid="1" gridSize="10" guides="1" tooltips="1" connect="1" arrows="1" fold="1" page="1" pageScale="1" pageWidth="827" pageHeight="1169" math="0" shadow="0">
      <root>
        <mxCell id="0" />
        <mxCell id="1" parent="0" />
        <mxCell id="g2Mc58VrfWElOGzlkAhz-1" value="Book ID" style="rounded=0;whiteSpace=wrap;html=1;" vertex="1" parent="1">
          <mxGeometry x="89" y="360" width="100" height="50" as="geometry" />
        </mxCell>
        <mxCell id="g2Mc58VrfWElOGzlkAhz-2" value="Author" style="rounded=0;whiteSpace=wrap;html=1;" vertex="1" parent="1">
          <mxGeometry x="189" y="360" width="100" height="50" as="geometry" />
        </mxCell>
        <mxCell id="g2Mc58VrfWElOGzlkAhz-3" value="Title" style="rounded=0;whiteSpace=wrap;html=1;" vertex="1" parent="1">
          <mxGeometry x="289" y="360" width="100" height="50" as="geometry" />
        </mxCell>
        <mxCell id="g2Mc58VrfWElOGzlkAhz-4" value="Price" style="rounded=0;whiteSpace=wrap;html=1;" vertex="1" parent="1">
          <mxGeometry x="389" y="360" width="100" height="50" as="geometry" />
        </mxCell>
        <mxCell id="g2Mc58VrfWElOGzlkAhz-5" value="Availability" style="rounded=0;whiteSpace=wrap;html=1;" vertex="1" parent="1">
          <mxGeometry x="489" y="360" width="100" height="50" as="geometry" />
        </mxCell>
        <mxCell id="g2Mc58VrfWElOGzlkAhz-6" value="ISBN" style="rounded=0;whiteSpace=wrap;html=1;fontStyle=4" vertex="1" parent="1">
          <mxGeometry x="589" y="360" width="100" height="50" as="geometry" />
        </mxCell>
        <mxCell id="g2Mc58VrfWElOGzlkAhz-7" value="Publisher_ID" style="rounded=0;whiteSpace=wrap;html=1;fontStyle=4" vertex="1" parent="1">
          <mxGeometry x="89" y="550" width="100" height="50" as="geometry" />
        </mxCell>
        <mxCell id="g2Mc58VrfWElOGzlkAhz-8" value="Book" style="text;html=1;strokeColor=none;fillColor=none;align=center;verticalAlign=middle;whiteSpace=wrap;rounded=0;fontSize=16;fontStyle=1" vertex="1" parent="1">
          <mxGeometry x="89" y="330" width="60" height="30" as="geometry" />
        </mxCell>
        <mxCell id="g2Mc58VrfWElOGzlkAhz-10" value="Publisher" style="text;html=1;strokeColor=none;fillColor=none;align=center;verticalAlign=middle;whiteSpace=wrap;rounded=0;fontSize=16;fontStyle=1" vertex="1" parent="1">
          <mxGeometry x="89" y="520" width="90" height="30" as="geometry" />
        </mxCell>
        <mxCell id="g2Mc58VrfWElOGzlkAhz-11" value="Member" style="text;html=1;strokeColor=none;fillColor=none;align=center;verticalAlign=middle;whiteSpace=wrap;rounded=0;fontSize=16;fontStyle=1" vertex="1" parent="1">
          <mxGeometry x="89" y="690" width="90" height="30" as="geometry" />
        </mxCell>
        <mxCell id="g2Mc58VrfWElOGzlkAhz-12" value="PublisherName" style="rounded=0;whiteSpace=wrap;html=1;" vertex="1" parent="1">
          <mxGeometry x="189" y="550" width="100" height="50" as="geometry" />
        </mxCell>
        <mxCell id="g2Mc58VrfWElOGzlkAhz-13" value="PublisherAddress" style="rounded=0;whiteSpace=wrap;html=1;" vertex="1" parent="1">
          <mxGeometry x="289" y="550" width="100" height="50" as="geometry" />
        </mxCell>
        <mxCell id="g2Mc58VrfWElOGzlkAhz-20" style="edgeStyle=orthogonalEdgeStyle;rounded=0;orthogonalLoop=1;jettySize=auto;html=1;" edge="1" parent="1" source="g2Mc58VrfWElOGzlkAhz-14" target="g2Mc58VrfWElOGzlkAhz-6">
          <mxGeometry relative="1" as="geometry">
            <Array as="points">
              <mxPoint x="439" y="530" />
              <mxPoint x="620" y="530" />
            </Array>
          </mxGeometry>
        </mxCell>
        <mxCell id="g2Mc58VrfWElOGzlkAhz-14" value="ISBN" style="rounded=0;whiteSpace=wrap;html=1;" vertex="1" parent="1">
          <mxGeometry x="389" y="550" width="100" height="50" as="geometry" />
        </mxCell>
        <mxCell id="g2Mc58VrfWElOGzlkAhz-28" style="edgeStyle=orthogonalEdgeStyle;rounded=0;orthogonalLoop=1;jettySize=auto;html=1;" edge="1" parent="1" source="g2Mc58VrfWElOGzlkAhz-27" target="g2Mc58VrfWElOGzlkAhz-15">
          <mxGeometry relative="1" as="geometry">
            <mxPoint x="59" y="310" as="sourcePoint" />
            <Array as="points">
              <mxPoint x="549" y="310" />
              <mxPoint x="739" y="310" />
              <mxPoint x="739" y="810" />
              <mxPoint x="139" y="810" />
            </Array>
          </mxGeometry>
        </mxCell>
        <mxCell id="g2Mc58VrfWElOGzlkAhz-15" value="memb_ID" style="rounded=0;whiteSpace=wrap;html=1;fontStyle=4" vertex="1" parent="1">
          <mxGeometry x="89" y="720" width="100" height="50" as="geometry" />
        </mxCell>
        <mxCell id="g2Mc58VrfWElOGzlkAhz-16" value="member_Name" style="rounded=0;whiteSpace=wrap;html=1;" vertex="1" parent="1">
          <mxGeometry x="189" y="720" width="100" height="50" as="geometry" />
        </mxCell>
        <mxCell id="g2Mc58VrfWElOGzlkAhz-17" value="address" style="rounded=0;whiteSpace=wrap;html=1;" vertex="1" parent="1">
          <mxGeometry x="289" y="720" width="100" height="50" as="geometry" />
        </mxCell>
        <mxCell id="g2Mc58VrfWElOGzlkAhz-18" value="memb_type" style="rounded=0;whiteSpace=wrap;html=1;" vertex="1" parent="1">
          <mxGeometry x="389" y="720" width="100" height="50" as="geometry" />
        </mxCell>
        <mxCell id="g2Mc58VrfWElOGzlkAhz-19" value="mem_join_date" style="rounded=0;whiteSpace=wrap;html=1;" vertex="1" parent="1">
          <mxGeometry x="489" y="720" width="100" height="50" as="geometry" />
        </mxCell>
        <mxCell id="g2Mc58VrfWElOGzlkAhz-21" value="Issue/Loan Date" style="rounded=0;whiteSpace=wrap;html=1;fontStyle=0" vertex="1" parent="1">
          <mxGeometry x="89" y="188" width="100" height="50" as="geometry" />
        </mxCell>
        <mxCell id="g2Mc58VrfWElOGzlkAhz-22" value="Due Date" style="rounded=0;whiteSpace=wrap;html=1;" vertex="1" parent="1">
          <mxGeometry x="189" y="188" width="100" height="50" as="geometry" />
        </mxCell>
        <mxCell id="g2Mc58VrfWElOGzlkAhz-23" value="Return Date" style="rounded=0;whiteSpace=wrap;html=1;" vertex="1" parent="1">
          <mxGeometry x="289" y="188" width="100" height="50" as="geometry" />
        </mxCell>
        <mxCell id="g2Mc58VrfWElOGzlkAhz-34" style="edgeStyle=orthogonalEdgeStyle;rounded=0;orthogonalLoop=1;jettySize=auto;html=1;" edge="1" parent="1" source="g2Mc58VrfWElOGzlkAhz-24" target="g2Mc58VrfWElOGzlkAhz-6">
          <mxGeometry relative="1" as="geometry">
            <Array as="points">
              <mxPoint x="639" y="565" />
              <mxPoint x="670" y="565" />
            </Array>
          </mxGeometry>
        </mxCell>
        <mxCell id="g2Mc58VrfWElOGzlkAhz-24" value="ISBN" style="rounded=0;whiteSpace=wrap;html=1;" vertex="1" parent="1">
          <mxGeometry x="589" y="720" width="100" height="50" as="geometry" />
        </mxCell>
        <mxCell id="g2Mc58VrfWElOGzlkAhz-26" value="The database is normalized based on 1NF, as each table contains all the items of atomic data, without repetition groups and a designated primary key.&lt;br&gt;&lt;br&gt;The database is normalized based on 2NF, as it does not include partial dependencies.&lt;br&gt;&lt;br&gt;3NF is in agreement with it because it does not have transitive dependencies.&amp;nbsp;" style="text;html=1;strokeColor=none;fillColor=none;align=left;verticalAlign=middle;whiteSpace=wrap;rounded=0;" vertex="1" parent="1">
          <mxGeometry x="89" y="820" width="550" height="140" as="geometry" />
        </mxCell>
        <mxCell id="g2Mc58VrfWElOGzlkAhz-27" value="memb_ID" style="rounded=0;whiteSpace=wrap;html=1;fontStyle=0" vertex="1" parent="1">
          <mxGeometry x="489" y="188" width="100" height="50" as="geometry" />
        </mxCell>
        <mxCell id="g2Mc58VrfWElOGzlkAhz-31" style="edgeStyle=orthogonalEdgeStyle;rounded=0;orthogonalLoop=1;jettySize=auto;html=1;" edge="1" parent="1" source="g2Mc58VrfWElOGzlkAhz-29" target="g2Mc58VrfWElOGzlkAhz-6">
          <mxGeometry relative="1" as="geometry">
            <Array as="points">
              <mxPoint x="439" y="340" />
              <mxPoint x="639" y="340" />
            </Array>
          </mxGeometry>
        </mxCell>
        <mxCell id="g2Mc58VrfWElOGzlkAhz-29" value="ISBN" style="rounded=0;whiteSpace=wrap;html=1;" vertex="1" parent="1">
          <mxGeometry x="389" y="188" width="100" height="50" as="geometry" />
        </mxCell>
        <mxCell id="g2Mc58VrfWElOGzlkAhz-32" value="Borrowed ID" style="rounded=0;whiteSpace=wrap;html=1;fontStyle=4" vertex="1" parent="1">
          <mxGeometry x="589" y="188" width="100" height="50" as="geometry" />
        </mxCell>
        <mxCell id="g2Mc58VrfWElOGzlkAhz-33" value="&lt;span style=&quot;caret-color: rgb(0, 0, 0); color: rgb(0, 0, 0); font-family: Helvetica; font-size: 16px; font-style: normal; font-variant-caps: normal; font-weight: 700; letter-spacing: normal; text-align: center; text-indent: 0px; text-transform: none; word-spacing: 0px; -webkit-text-stroke-width: 0px; background-color: rgb(251, 251, 251); text-decoration: none; float: none; display: inline !important;&quot;&gt;Borrowed Books&amp;nbsp;&lt;/span&gt;" style="text;whiteSpace=wrap;html=1;" vertex="1" parent="1">
          <mxGeometry x="89" y="158" width="211" height="40" as="geometry" />
        </mxCell>
      </root>
    </mxGraphModel>
  </diagram>
</mxfile>
